<svg width="700" height="220" viewBox="0 0 700 220" fill="none" xmlns="http://www.w3.org/2000/svg">
  <g fill="#534AB7">
    <path d="M72 154H108C110 167 118 173 133 173C149 173 158 167 158 157C158 147 151 143 131 139L114 136C85 130 70 117 70 93C70 61 95 42 136 42C177 42 203 61 207 93H171C168 81 159 75 145 75C131 75 122 80 122 89C122 98 129 102 149 106L166 109C197 115 211 128 211 151C211 186 182 206 136 206C89 206 76 183 72 154Z"/>
    <path d="M226 48H279V196H226V48Z"/>
    <path d="M298 48H351V196H298V48Z"/>
    <path d="M449 141H500C492 180 460 206 414 206C356 206 317 170 317 124C317 78 356 42 414 42C459 42 491 67 500 105H449C443 87 431 79 414 79C390 79 372 97 372 124C372 151 389 169 414 169C432 169 444 160 449 141Z"/>
    <circle cx="470" cy="124" r="12" fill="#534AB7"/>
    <path d="M486 196L540 118H579L525 196H486Z"/>
    <path d="M541 114L595 196H556L502 114H541Z"/>
    <path d="M550 186L630 64H666L586 186H550Z"/>
    <path d="M597 140H676V174H597V140Z"/>
  </g>
</svg>
